<?xml version="1.0" standalone="no"?><!DOCTYPE svg PUBLIC "-//W3C//DTD SVG 1.1//EN" "http://www.w3.org/Graphics/SVG/1.1/DTD/svg11.dtd"><svg t="1510109271138" class="icon" style="" viewBox="0 0 1024 1024" version="1.1" xmlns="http://www.w3.org/2000/svg" p-id="1855" xmlns:xlink="http://www.w3.org/1999/xlink" width="48" height="48"><defs><style type="text/css"></style></defs><path d="M469.87264 759.9104V366.13632a24.76544 24.76544 0 0 0-24.77568-24.7808 24.76544 24.76544 0 0 0-24.7808 24.7808v393.77408a24.76032 24.76032 0 0 0 24.7808 24.77568 24.7552 24.7552 0 0 0 24.77568-24.77568zM420.32128 213.17632h198.2208a24.7552 24.7552 0 0 0 24.77568-24.77568 24.76032 24.76032 0 0 0-24.77568-24.7808H420.32128a24.76544 24.76544 0 0 0-24.77568 24.7808 24.7552 24.7552 0 0 0 24.77568 24.77568z m322.0992 129.00864a24.7552 24.7552 0 0 0-24.77568 24.77568l-15.36 433.08544c0 27.3664-11.95008 39.31648-39.31648 39.31648h-287.0784c-27.3664 0-39.31648-11.95008-39.31648-39.31648l-15.36-433.08544a24.77568 24.77568 0 0 0-49.54624 0l15.36 462.16192c0 27.36128 32.42496 59.79136 59.78624 59.79136h345.23136c27.36128 0 59.78624-32.43008 59.78624-59.79136l15.36-462.16192a24.76032 24.76032 0 0 0-24.77056-24.77568z m74.32704-99.11296H222.1056a24.7808 24.7808 0 0 0 0 49.5616h594.64704a24.76032 24.76032 0 0 0 24.77056-24.7808 24.77056 24.77056 0 0 0-24.77568-24.7808zM618.53696 759.9104V366.13632a24.76544 24.76544 0 0 0-24.78592-24.7808 24.76032 24.76032 0 0 0-24.77056 24.7808v393.77408a24.76032 24.76032 0 0 0 24.77056 24.77568 24.76032 24.76032 0 0 0 24.78592-24.77568z" fill="#ffffff" p-id="1856"></path></svg>