<?xml version="1.0" standalone="no"?><!DOCTYPE svg PUBLIC "-//W3C//DTD SVG 1.1//EN" "http://www.w3.org/Graphics/SVG/1.1/DTD/svg11.dtd"><svg t="1510109353120" class="icon" style="" viewBox="0 0 1024 1024" version="1.1" xmlns="http://www.w3.org/2000/svg" p-id="2607" xmlns:xlink="http://www.w3.org/1999/xlink" width="48" height="48"><defs><style type="text/css"></style></defs><path d="M788.912034 409.953946c0-207.651033-168.326484-376.031035-376.080904-376.031034C205.178881 33.922912 36.85118 202.302914 36.85118 409.953946c0 207.653465 168.327701 376.031035 375.978734 376.031035 207.755636 0.001216 376.08212-168.37757 376.08212-376.031035zM412.829914 691.98969c-155.738883 0-281.932357-126.246992-281.932357-282.035744 0-155.738883 126.193474-282.035743 281.932357-282.035743 155.843485 0 282.035743 126.296861 282.035743 282.035743 0 155.791184-126.192258 282.035743-282.035743 282.035744z" p-id="2608" fill="#ffffff"></path><path d="M237.845343 429.512226h51.705377c0-85.515172 69.598527-155.061398 155.010313-155.061398v-51.705377c-113.918464 0-206.71569 92.74614-206.71569 206.766775zM962.336077 847.105821l-204.632149-204.634581c-29.440806 48.999085-70.638473 90.094582-119.744594 119.535388l204.739185 204.739184c33.084873 33.030139 86.662153 33.030139 119.637558 0 33.084873-32.980271 33.084873-86.662153 0-119.639991z" p-id="2609" fill="#ffffff"></path></svg>